HIERARCHY
ROOT joint_0
{
	OFFSET 0.000000 0.000000 0.000000
	CHANNELS 6 Xposition Yposition Zposition Zrotation Yrotation Xrotation 
	JOINT joint_1
	{
		OFFSET 17.107422 0.519409 105.452026
		CHANNELS 3 Zrotation Yrotation Xrotation
		JOINT joint_2
		{
			OFFSET 6.110352 -1.434082 97.381958
			CHANNELS 3 Zrotation Yrotation Xrotation
			JOINT joint_3
			{
				OFFSET 6.305908 -1.739990 97.255005
				CHANNELS 3 Zrotation Yrotation Xrotation
				JOINT joint_4
				{
					OFFSET 22.074707 -0.492493 131.077026
					CHANNELS 3 Zrotation Yrotation Xrotation
					JOINT joint_5
					{
						OFFSET 34.162842 2.248718 78.700928
						CHANNELS 3 Zrotation Yrotation Xrotation
						End Site
						{
							OFFSET 0.000000 0.000000 0.000000
						}
					}
				}
				JOINT joint_6
				{
					OFFSET 17.059082 -28.836914 72.664062
					CHANNELS 3 Zrotation Yrotation Xrotation
					JOINT joint_7
					{
						OFFSET 22.639893 -134.803833 -24.691040
						CHANNELS 3 Zrotation Yrotation Xrotation
						JOINT joint_8
						{
							OFFSET 7.301758 -32.590759 -269.966064
							CHANNELS 3 Zrotation Yrotation Xrotation
							JOINT joint_9
							{
								OFFSET 35.581055 -8.517151 -242.326965
								CHANNELS 3 Zrotation Yrotation Xrotation
								End Site
								{
									OFFSET 0.000000 0.000000 0.000000
								}
							}
						}
					}
				}
				JOINT joint_10
				{
					OFFSET 7.819092 28.232056 74.432983
					CHANNELS 3 Zrotation Yrotation Xrotation
					JOINT joint_11
					{
						OFFSET -23.457031 135.063843 -22.406982
						CHANNELS 3 Zrotation Yrotation Xrotation
						JOINT joint_12
						{
							OFFSET 17.896973 48.138672 -267.131958
							CHANNELS 3 Zrotation Yrotation Xrotation
							JOINT joint_13
							{
								OFFSET 46.526367 17.567627 -239.975037
								CHANNELS 3 Zrotation Yrotation Xrotation
								End Site
								{
									OFFSET 0.000000 0.000000 0.000000
								}
							}
						}
					}
				}
			}
		}
	}
	JOINT joint_14
	{
		OFFSET 10.553467 -100.140320 -126.306030
		CHANNELS 3 Zrotation Yrotation Xrotation
		JOINT joint_15
		{
			OFFSET -52.094238 -9.565002 -436.052002
			CHANNELS 3 Zrotation Yrotation Xrotation
			JOINT joint_16
			{
				OFFSET -55.682617 -11.310120 -462.482971
				CHANNELS 3 Zrotation Yrotation Xrotation
				JOINT joint_17
				{
					OFFSET 179.119385 -5.942566 -84.087004
					CHANNELS 3 Zrotation Yrotation Xrotation
					End Site
					{
						OFFSET 0.000000 0.000000 0.000000
					}
				}
			}
		}
	}
	JOINT joint_18
	{
		OFFSET -22.235352 101.620483 -123.583984
		CHANNELS 3 Zrotation Yrotation Xrotation
		JOINT joint_19
		{
			OFFSET -38.118408 12.306396 -437.429016
			CHANNELS 3 Zrotation Yrotation Xrotation
			JOINT joint_20
			{
				OFFSET -51.789307 8.010498 -463.006004
				CHANNELS 3 Zrotation Yrotation Xrotation
				JOINT joint_21
				{
					OFFSET 170.088135 59.632324 -83.078003
					CHANNELS 3 Zrotation Yrotation Xrotation
					End Site
					{
						OFFSET 0.000000 0.000000 0.000000
					}
				}
			}
		}
	}
}
MOTION
Frames: 18
Frame Time: 0.016667
-3476.322510 1006.543152 1125.329956 -2.898809 -2.628043 -0.188299 0.194803 2.218899 -0.117777 0.139825 -0.474551 0.051947 0.163077 0.515526 -0.035420 0.522790 -3.705341 -0.934203 0.000000 0.000000 0.000000 0.196282 1.295071 1.686524 0.068633 0.784680 -1.494764 0.404071 -1.131355 2.445403 0.000000 0.000000 0.000000 -0.480966 2.199112 -0.539419 0.418143 2.114173 -1.893944 0.229531 -0.107188 1.214838 0.000000 0.000000 0.000000 0.115469 -0.519413 -0.289142 0.253621 0.088487 -1.559450 -0.007846 2.577505 0.081849 0.000000 0.000000 0.000000 0.214650 1.540133 0.556375 0.163935 -0.912430 0.324030 0.252991 0.905376 -0.194073 0.000000 0.000000 0.000000 
-3474.185547 1006.930115 1125.275024 -2.771401 -2.440689 -0.214633 0.208987 2.261398 -0.087768 0.155352 -0.475483 0.046778 0.177829 0.512527 -0.029807 0.522695 -3.931153 -0.919562 0.000000 0.000000 0.000000 0.144588 1.465903 1.770939 0.061940 0.896837 -1.714322 0.430979 -1.226234 2.603657 0.000000 0.000000 0.000000 -0.275195 2.249752 -0.627204 0.425731 2.169937 -1.763206 0.192426 -0.210283 1.064069 0.000000 0.000000 0.000000 0.092607 -0.528754 -0.304269 0.230455 -0.001698 -1.556886 -0.028019 2.447558 0.068108 0.000000 0.000000 0.000000 0.210338 1.357554 0.568334 0.174944 -0.744215 0.277630 0.245943 0.719483 -0.132317 0.000000 0.000000 0.000000 
-3471.621094 1007.398743 1125.224976 -2.634866 -2.188049 -0.258279 0.211165 2.296162 -0.004319 0.163666 -0.468669 0.022248 0.182886 0.495964 -0.011242 0.525515 -4.216145 -0.907602 0.000000 0.000000 0.000000 0.113473 1.665346 1.824032 0.054661 1.041738 -1.965052 0.466871 -1.357537 2.813066 0.000000 0.000000 0.000000 0.000491 2.309816 -0.755537 0.433983 2.240394 -1.576891 0.140976 -0.343448 0.850705 0.000000 0.000000 0.000000 0.069332 -0.561837 -0.315996 0.206229 -0.131698 -1.542528 -0.048304 2.301060 0.053757 0.000000 0.000000 0.000000 0.207548 1.112949 0.594355 0.192181 -0.542164 0.222843 0.239860 0.468850 -0.047394 0.000000 0.000000 0.000000 
-3468.429199 1008.101685 1125.173950 -2.486486 -1.877447 -0.305301 0.212977 2.442746 0.072041 0.168676 -0.496974 -0.004765 0.185643 0.511948 0.007905 0.528387 -4.617835 -0.886698 0.000000 0.000000 0.000000 0.124607 1.848632 1.785323 0.045905 1.203936 -2.157499 0.505029 -1.524821 3.030050 0.000000 0.000000 0.000000 0.232482 2.423978 -0.799975 0.443702 2.337978 -1.504959 0.078077 -0.564413 0.610601 0.000000 0.000000 0.000000 0.055775 -0.617175 -0.358592 0.184318 -0.251798 -1.503047 -0.060291 2.045526 0.039662 0.000000 0.000000 0.000000 0.199301 0.803696 0.610851 0.206619 -0.262692 0.173760 0.225392 0.124287 0.066368 0.000000 0.000000 0.000000 
-3464.562012 1009.133423 1125.162964 -2.318443 -1.503633 -0.338214 0.210745 2.837716 0.091976 0.159862 -0.602383 -0.027824 0.178037 0.602784 0.019134 0.530665 -5.217888 -0.847581 0.000000 0.000000 0.000000 0.210927 1.966438 1.615940 0.037281 1.356129 -2.231977 0.544038 -1.747830 3.240945 0.000000 0.000000 0.000000 0.318658 2.636697 -0.684931 0.463918 2.495039 -1.646181 -0.004831 -0.986244 0.341621 0.000000 0.000000 0.000000 0.056746 -0.709761 -0.468425 0.161894 -0.323536 -1.420590 -0.061314 1.592872 0.024150 0.000000 0.000000 0.000000 0.180624 0.417437 0.587179 0.209149 0.111918 0.156235 0.195683 -0.325845 0.209699 0.000000 0.000000 0.000000 
-3460.104492 1010.433777 1125.193970 -2.132887 -1.066345 -0.360053 0.200469 3.442077 0.077376 0.135856 -0.760485 -0.053735 0.156701 0.729243 0.029672 0.533118 -5.987672 -0.792737 0.000000 0.000000 0.000000 0.356248 2.040750 1.337450 0.028827 1.507880 -2.220592 0.586018 -2.023802 3.459935 0.000000 0.000000 0.000000 0.310908 2.932694 -0.476899 0.494235 2.713280 -1.918130 -0.107895 -1.582871 0.032770 0.000000 0.000000 0.000000 0.068216 -0.837398 -0.634205 0.137437 -0.366545 -1.300241 -0.054974 0.982335 0.006846 0.000000 0.000000 0.000000 0.154696 -0.041587 0.529959 0.203199 0.563384 0.166356 0.154760 -0.863943 0.378383 0.000000 0.000000 0.000000 
-3454.627686 1012.050415 1125.069946 -1.952444 -0.604808 -0.411557 0.238229 3.981140 0.094788 0.163753 -0.880767 -0.078407 0.185550 0.816011 0.048931 0.528986 -6.749114 -0.724180 0.000000 0.000000 0.000000 0.424730 2.169721 0.936631 0.011251 1.737492 -2.116741 0.616444 -2.254514 3.614326 0.000000 0.000000 0.000000 0.330008 3.241063 -0.204121 0.494287 2.900219 -2.321739 -0.185884 -2.014245 -0.207780 0.000000 0.000000 0.000000 0.094492 -0.927161 -0.792811 0.129401 -0.415180 -1.177071 -0.032400 0.351691 -0.003511 0.000000 0.000000 0.000000 0.120989 -0.530757 0.511471 0.201225 1.143747 0.129857 0.104365 -1.513173 0.581386 0.000000 0.000000 0.000000 
-3447.692871 1014.115540 1124.609985 -1.802769 -0.122785 -0.539470 0.381941 4.260360 0.191257 0.309096 -0.917924 -0.092796 0.329171 0.841079 0.081955 0.509219 -7.449834 -0.632882 0.000000 0.000000 0.000000 0.271804 2.430134 0.411836 -0.016974 2.093908 -1.936957 0.628284 -2.369464 3.672470 0.000000 0.000000 0.000000 0.498000 3.526770 0.216431 0.418466 2.950322 -3.029211 -0.193780 -1.999597 -0.248377 0.000000 0.000000 0.000000 0.148734 -0.928836 -0.894478 0.161024 -0.525238 -1.066460 0.022693 -0.201557 0.003949 0.000000 0.000000 0.000000 0.077840 -1.056514 0.603601 0.215707 1.928444 -0.019111 0.045603 -2.315092 0.833832 0.000000 0.000000 0.000000 
-3439.458984 1016.611511 1123.885986 -1.677423 0.397083 -0.729610 0.610313 4.376686 0.343369 0.546790 -0.902215 -0.100280 0.563749 0.835238 0.121260 0.474584 -8.163446 -0.516011 0.000000 0.000000 0.000000 -0.061163 2.787630 -0.208165 -0.047608 2.541856 -1.701903 0.628400 -2.398903 3.667863 0.000000 0.000000 0.000000 0.779044 3.814954 0.784519 0.283962 2.905362 -4.011700 -0.148096 -1.673937 -0.128894 0.000000 0.000000 0.000000 0.229346 -0.871642 -0.961300 0.225665 -0.686493 -0.956140 0.106766 -0.718055 0.026225 0.000000 0.000000 0.000000 0.024498 -1.636731 0.780622 0.240831 2.895416 -0.251881 -0.022420 -3.241547 1.125447 0.000000 0.000000 0.000000 
-3430.632080 1019.097900 1123.130981 -1.534931 0.856236 -0.896398 0.832276 4.418881 0.520112 0.781566 -0.870282 -0.102127 0.795326 0.805642 0.155367 0.466204 -8.639006 -0.486003 0.000000 0.000000 0.000000 -0.309668 3.168926 -0.888866 -0.086246 3.059486 -1.370923 0.608481 -2.357121 3.539478 0.000000 0.000000 0.000000 0.926721 4.034114 1.081881 0.176756 2.952982 -4.496928 -0.124791 -1.315143 -0.139202 0.000000 0.000000 0.000000 0.292670 -0.774421 -1.027437 0.275218 -0.734333 -0.878327 0.175180 -1.222354 0.041583 0.000000 0.000000 0.000000 -0.037699 -2.120834 0.937114 0.253013 3.868326 -0.490484 -0.102517 -4.140711 1.401649 0.000000 0.000000 0.000000 
-3421.658447 1021.339050 1122.485962 -1.360442 1.175851 -0.984479 0.995681 4.418977 0.720101 0.960041 -0.839680 -0.088956 0.971980 0.752484 0.173814 0.516903 -8.667540 -0.633037 0.000000 0.000000 0.000000 -0.252937 3.534279 -1.688125 -0.140821 3.676758 -0.842945 0.556735 -2.207545 3.216553 0.000000 0.000000 0.000000 0.697916 4.095575 0.734552 0.163807 3.229649 -3.806034 -0.187251 -1.093109 -0.533184 0.000000 0.000000 0.000000 0.311893 -0.605633 -1.119390 0.280711 -0.618673 -0.846250 0.199590 -1.692896 0.037445 0.000000 0.000000 0.000000 -0.114328 -2.411005 1.003790 0.231947 4.775076 -0.684577 -0.204485 -4.962854 1.640207 0.000000 0.000000 0.000000 
-3412.271484 1023.504944 1121.864014 -1.170891 1.393558 -1.027947 1.137298 4.345385 0.955255 1.120362 -0.803962 -0.060454 1.131416 0.685638 0.184970 0.612044 -8.348229 -0.911901 0.000000 0.000000 0.000000 0.002382 3.908870 -2.615922 -0.205235 4.399854 -0.133908 0.478030 -1.934636 2.733444 0.000000 0.000000 0.000000 0.170989 4.022242 -0.103609 0.216237 3.665506 -2.233959 -0.307677 -0.912954 -1.202739 0.000000 0.000000 0.000000 0.304218 -0.358137 -1.223027 0.260984 -0.403310 -0.845775 0.197464 -2.114272 0.022498 0.000000 0.000000 0.000000 -0.205420 -2.564130 1.022006 0.187150 5.681607 -0.863874 -0.326591 -5.759676 1.860129 0.000000 0.000000 0.000000 
-3402.527832 1025.332520 1121.302979 -0.883419 1.569064 -1.017399 1.206912 4.284936 1.141120 1.206463 -0.789881 -0.047546 1.216884 0.646240 0.191673 0.724018 -7.853386 -1.225401 0.000000 0.000000 0.000000 0.313102 4.238115 -3.386124 -0.273971 5.054483 0.511883 0.397089 -1.741023 2.217541 0.000000 0.000000 0.000000 -0.303839 3.999886 -0.875061 0.263103 4.117663 -0.758986 -0.430969 -0.764671 -1.873252 0.000000 0.000000 0.000000 0.258340 -0.224720 -1.319714 0.200460 0.182711 -0.904412 0.161845 -2.664677 -0.012387 0.000000 0.000000 0.000000 -0.279699 -2.575224 0.992156 0.145324 6.399148 -1.031949 -0.429552 -6.364855 2.022267 0.000000 0.000000 0.000000 
-3392.373291 1026.605225 1120.818970 -0.405497 1.744563 -0.914872 1.149714 4.291988 1.168353 1.155253 -0.817756 -0.060315 1.165822 0.668144 0.193470 0.839347 -7.261740 -1.524724 0.000000 0.000000 0.000000 0.635436 4.464182 -3.816293 -0.357059 5.520976 0.997008 0.313802 -1.746302 1.649306 0.000000 0.000000 0.000000 -0.440792 4.197666 -1.142416 0.246844 4.496621 -0.100188 -0.521018 -0.642832 -2.360668 0.000000 0.000000 0.000000 0.140815 -0.294357 -1.410915 0.065902 1.263098 -1.063134 0.061596 -3.440932 -0.084884 0.000000 0.000000 0.000000 -0.309153 -2.419151 0.873337 0.124434 6.752508 -1.171665 -0.480647 -6.637165 2.092928 0.000000 0.000000 0.000000 
-3381.774414 1027.426758 1120.392944 0.230395 1.898174 -0.717698 0.986639 4.328359 1.055854 0.988160 -0.873284 -0.082204 1.000068 0.736712 0.190866 0.965784 -6.515051 -1.841022 0.000000 0.000000 0.000000 1.032888 4.605477 -4.029851 -0.461017 5.866898 1.424812 0.216979 -1.874809 0.975741 0.000000 0.000000 0.000000 -0.365022 4.545546 -1.120790 0.190655 4.856651 0.115702 -0.597869 -0.548374 -2.765079 0.000000 0.000000 0.000000 -0.044015 -0.493923 -1.516004 -0.139320 2.728130 -1.300379 -0.102782 -4.339387 -0.191131 0.000000 0.000000 0.000000 -0.304684 -2.098738 0.665383 0.115323 6.815395 -1.284381 -0.494469 -6.644079 2.088600 0.000000 0.000000 0.000000 
-3371.214355 1027.950073 1120.098022 0.851655 2.016158 -0.536323 0.802853 4.409706 1.004670 0.803405 -0.932840 -0.144601 0.813445 0.800143 0.195455 1.078528 -5.751829 -2.126367 0.000000 0.000000 0.000000 1.380178 4.751606 -4.088367 -0.558055 6.127727 1.562901 0.168834 -2.275750 0.575000 0.000000 0.000000 0.000000 -0.319021 4.859607 -1.073715 0.126787 5.153994 0.168905 -0.658823 -0.464269 -3.084154 0.000000 0.000000 0.000000 -0.179099 -1.021420 -1.623968 -0.324577 4.863062 -1.471695 -0.220790 -5.343703 -0.278966 0.000000 0.000000 0.000000 -0.298840 -1.710893 0.529138 0.113112 6.808128 -1.434011 -0.498235 -6.546514 2.052549 0.000000 0.000000 0.000000 
-3361.094971 1028.265869 1119.943970 1.333896 2.101946 -0.416389 0.654587 4.518914 1.106385 0.658971 -0.963167 -0.240007 0.661647 0.820990 0.220634 1.166408 -5.047031 -2.359417 0.000000 0.000000 0.000000 1.574339 4.971077 -4.012222 -0.625116 6.311963 1.159839 0.228667 -3.131561 0.800604 0.000000 0.000000 0.000000 -0.481780 5.003124 -1.162352 0.083794 5.334651 0.174713 -0.691096 -0.359340 -3.272670 0.000000 0.000000 0.000000 -0.167952 -2.070321 -1.765026 -0.417926 7.949554 -1.468267 -0.197837 -6.448301 -0.304620 0.000000 0.000000 0.000000 -0.289713 -1.322302 0.526962 0.133821 6.841623 -1.656962 -0.487440 -6.434615 2.018414 0.000000 0.000000 0.000000 
-3351.234131 1028.319092 1119.900024 1.736331 2.170175 -0.276829 0.519866 4.628920 1.201146 0.513763 -0.963674 -0.309656 0.507429 0.818293 0.261360 1.239785 -4.345629 -2.563309 0.000000 0.000000 0.000000 1.665491 5.231339 -3.776402 -0.682414 6.406978 0.293670 0.365066 -4.391133 1.503549 0.000000 0.000000 0.000000 -0.765414 5.044431 -1.280932 0.051569 5.413232 0.023103 -0.696599 -0.240574 -3.337017 0.000000 0.000000 0.000000 -0.053137 -3.565995 -2.011681 -0.454263 11.845233 -1.303409 -0.057889 -7.495068 -0.275142 0.000000 0.000000 0.000000 -0.258976 -0.908617 0.546645 0.179994 6.832689 -1.918305 -0.448147 -6.229078 1.964957 0.000000 0.000000 0.000000 
